<?xml version="1.0" standalone="no"?><!DOCTYPE svg PUBLIC "-//W3C//DTD SVG 1.1//EN" "http://www.w3.org/Graphics/SVG/1.1/DTD/svg11.dtd"><svg t="1542009444031" class="icon" style="" viewBox="0 0 1025 1024" version="1.1" xmlns="http://www.w3.org/2000/svg" p-id="1853" xmlns:xlink="http://www.w3.org/1999/xlink" width="200.1953125" height="200"><defs><style type="text/css"></style></defs><path d="M925.53745 512.008769c0-63.846901 39.298496-114.247427 98.491782-148.886461-10.651868-35.638743-24.788102-69.769153-42.169005-101.911838-66.372482 17.36921-120.087831-8.634912-165.244269-53.785504S757.638983 108.523947 775.008193 42.174851c-32.130993-17.386749-66.261403-31.517136-101.917684-42.174851C638.439782 59.204978 575.873209 98.491782 512.014616 98.491782c-63.846901 0-126.41932-39.286803-161.081739-98.491782-35.638743 10.646022-69.769153 24.788102-101.900146 42.157312 17.357518 66.372482 3.548674 120.099523-41.607765 165.267654C162.268528 252.575559 108.529794 278.579681 42.169005 261.228009c-17.380903 32.125146-31.51129 66.255557-42.169005 101.894299C59.193286 397.767189 98.485935 448.161868 98.485935 512.008769s-39.292649 126.431013-98.485935 161.070047c10.651868 35.650435 24.788102 69.780846 42.169005 101.923531 66.372482-17.36921 120.099523-3.542828 165.250116 41.607765 45.144746 45.162285 58.965282 98.88348 41.607765 165.244269 32.130993 17.375056 66.261403 31.522983 101.917684 42.163158 34.656573-59.18744 97.217299-98.497628 161.0642-98.497628 63.858594 0 126.425166 39.310188 161.075893 98.497628 35.656282-10.651868 69.786692-24.788102 101.929377-42.180697-17.357518-66.349097-3.560367-120.070292 41.596072-165.232577 45.156439-45.150592 98.88348-71.166407 165.244269-53.797197 17.380903-32.142685 31.51129-66.273095 42.169005-101.923531C964.835945 626.25035 925.53745 575.855671 925.53745 512.008769zM512.014616 734.686603c-122.975879 0-222.660295-99.701955-222.660295-222.671988 0-122.981725 99.690263-222.671988 222.660295-222.671988 122.981725 0 222.660295 99.690263 222.660295 222.671988C734.674911 634.984648 634.99634 734.686603 512.014616 734.686603z" p-id="1854" fill="#1296db"></path></svg>